<svg width="159" height="106" viewBox="0 0 159 106" fill="none" xmlns="http://www.w3.org/2000/svg">
<path d="M138.867 38.6719C144.727 40.625 149.414 44.1406 152.93 49.2188C156.445 53.9062 158.203 59.1797 158.203 65.0391C158.594 70.8984 157.031 76.7578 153.516 82.6172C150.391 88.0859 145.312 92.7734 138.281 96.6797C126.953 102.539 116.992 104.102 108.398 101.367C99.8047 98.2422 93.75 93.5547 90.2344 87.3047C88.2812 84.1797 86.7188 79.8828 85.5469 74.4141C84.7656 68.9453 84.375 63.2812 84.375 57.4219C84.7656 51.1719 85.5469 45.1172 86.7188 39.2578C87.8906 33.3984 89.6484 28.5156 91.9922 24.6094C93.9453 21.875 96.2891 18.9453 99.0234 15.8203C101.367 13.0859 104.102 10.3516 107.227 7.61719C110.742 4.88281 114.648 2.34375 118.945 0L139.453 1.17188C136.719 4.29688 134.18 7.22656 131.836 9.96094C129.883 12.3047 128.125 14.4531 126.562 16.4062C125 18.3594 123.438 20.1172 121.875 21.6797C119.141 24.4141 116.992 27.1484 115.43 29.8828C113.867 32.2266 112.5 34.7656 111.328 37.5C110.547 40.2344 110.547 42.9688 111.328 45.7031C116.406 40.2344 122.266 37.5 128.906 37.5C132.031 37.5 135.352 37.8906 138.867 38.6719ZM58.0078 41.6016C63.4766 44.7266 67.3828 49.0234 69.7266 54.4922C72.4609 59.5703 73.4375 65.0391 72.6562 70.8984C71.875 76.7578 69.3359 82.2266 65.0391 87.3047C61.1328 92.3828 55.2734 96.2891 47.4609 99.0234C35.3516 102.93 25.3906 102.734 17.5781 98.4375C9.76562 93.75 4.49219 88.0859 1.75781 81.4453C0.585938 77.9297 0 73.4375 0 67.9688C0 62.5 0.585938 56.8359 1.75781 50.9766C2.92969 45.1172 4.49219 39.4531 6.44531 33.9844C8.39844 28.5156 10.9375 24.0234 14.0625 20.5078C16.4062 17.7734 19.1406 15.2344 22.2656 12.8906C25 10.9375 28.125 8.78906 31.6406 6.44531C35.5469 4.10156 39.8438 1.95313 44.5312 0L65.0391 5.27344C61.9141 8.00781 58.9844 10.3516 56.25 12.3047C53.9062 14.2578 51.7578 16.0156 49.8047 17.5781C47.8516 19.1406 45.8984 20.7031 43.9453 22.2656C41.2109 24.6094 38.8672 26.9531 36.9141 29.2969C34.9609 31.25 33.2031 33.5938 31.6406 36.3281C30.0781 38.6719 29.4922 41.2109 29.8828 43.9453C33.0078 41.6016 36.1328 40.2344 39.2578 39.8438C42.7734 39.0625 45.8984 38.8672 48.6328 39.2578C51.7578 39.6484 54.8828 40.4297 58.0078 41.6016Z" fill="#401609"/>
</svg>
