<svg width="43" height="43" viewBox="0 0 43 43" fill="none" xmlns="http://www.w3.org/2000/svg">
<path d="M32.6608 12.1859C34.0694 12.1859 35.2113 11.044 35.2113 9.63544C35.2113 8.22685 34.0694 7.08496 32.6608 7.08496C31.2522 7.08496 30.1104 8.22685 30.1104 9.63544C30.1104 11.044 31.2522 12.1859 32.6608 12.1859Z" fill="#FFE4E5"/>
<path d="M21.5422 10.6265C19.3836 10.6265 17.2734 11.2666 15.4786 12.4659C13.6837 13.6651 12.2848 15.3697 11.4587 17.364C10.6327 19.3584 10.4165 21.5528 10.8376 23.67C11.2588 25.7872 12.2983 27.7319 13.8247 29.2583C15.351 30.7847 17.2958 31.8242 19.4129 32.2453C21.5301 32.6664 23.7246 32.4503 25.7189 31.6242C27.7132 30.7981 29.4178 29.3992 30.6171 27.6044C31.8164 25.8095 32.4565 23.6994 32.4565 21.5407C32.4565 18.6461 31.3066 15.87 29.2598 13.8232C27.2129 11.7764 24.4369 10.6265 21.5422 10.6265ZM21.5422 28.6254C20.141 28.6254 18.7712 28.2099 17.6062 27.4314C16.4411 26.6529 15.5331 25.5465 14.9968 24.2519C14.4606 22.9574 14.3203 21.5329 14.5937 20.1586C14.867 18.7843 15.5418 17.5219 16.5326 16.5311C17.5234 15.5403 18.7858 14.8656 20.1601 14.5922C21.5343 14.3188 22.9588 14.4591 24.2534 14.9954C25.5479 15.5316 26.6544 16.4396 27.4329 17.6047C28.2114 18.7698 28.6269 20.1395 28.6269 21.5407C28.6269 23.4197 27.8805 25.2217 26.5518 26.5503C25.2232 27.879 23.4212 28.6254 21.5422 28.6254Z" fill="#FFE4E5"/>
<path d="M21.254 3.82961C26.929 3.82961 27.6013 3.85122 29.8424 3.9536C31.1901 3.96964 32.5251 4.21719 33.7891 4.68544C34.7056 5.03912 35.538 5.58072 36.2327 6.27541C36.9274 6.97011 37.469 7.80251 37.8227 8.71909C38.291 9.98301 38.5385 11.318 38.5546 12.6658C38.6567 14.9068 38.6785 15.5792 38.6785 21.2542C38.6785 26.9292 38.6569 27.6015 38.5546 29.8425C38.5385 31.1903 38.291 32.5253 37.8227 33.7892C37.469 34.7058 36.9274 35.5382 36.2327 36.2329C35.538 36.9276 34.7056 37.4692 33.7891 37.8229C32.5251 38.2911 31.1901 38.5387 29.8424 38.5547C27.6015 38.6569 26.9295 38.6787 21.254 38.6787C15.5785 38.6787 14.9065 38.6571 12.6656 38.5547C11.3178 38.5387 9.98284 38.2911 8.71892 37.8229C7.80234 37.4692 6.96993 36.9276 6.27524 36.2329C5.58054 35.5382 5.03894 34.7058 4.68526 33.7892C4.21701 32.5253 3.96946 31.1903 3.95342 29.8425C3.85122 27.6015 3.82944 26.9292 3.82944 21.2542C3.82944 15.5792 3.85104 14.9068 3.95342 12.6658C3.96946 11.318 4.21701 9.98301 4.68526 8.71909C5.03892 7.80248 5.58051 6.97004 6.27521 6.27532C6.9699 5.58059 7.80232 5.03896 8.71892 4.68526C9.98284 4.21701 11.3178 3.96946 12.6656 3.95342C14.9067 3.85122 15.579 3.82961 21.254 3.82961ZM21.254 0C15.4818 0 14.7579 0.0244418 12.491 0.127878C10.728 0.163271 8.98387 0.497325 7.33263 1.11583C5.92053 1.66191 4.63811 2.49699 3.56755 3.56755C2.49699 4.63811 1.66191 5.92053 1.11583 7.33263C0.497227 8.98415 0.163171 10.7286 0.127878 12.4919C0.0244418 14.7579 0 15.4818 0 21.254C0 27.0262 0.0244418 27.7501 0.127878 30.017C0.163192 31.7802 0.497246 33.5247 1.11583 35.1762C1.66191 36.5883 2.49699 37.8707 3.56755 38.9413C4.63811 40.0119 5.92053 40.8469 7.33263 41.393C8.98415 42.0116 10.7286 42.3457 12.4919 42.381C14.7579 42.4835 15.4818 42.508 21.254 42.508C27.0262 42.508 27.7501 42.4835 30.017 42.3801C31.7802 42.3448 33.5247 42.0107 35.1762 41.3921C36.5883 40.8461 37.8707 40.011 38.9413 38.9404C40.0119 37.8699 40.8469 36.5874 41.393 35.1753C42.0116 33.5238 42.3457 31.7793 42.381 30.0161C42.4835 27.7501 42.508 27.0262 42.508 21.254C42.508 15.4818 42.4835 14.7579 42.3801 12.491C42.3447 10.728 42.0106 8.98387 41.3921 7.33263C40.846 5.9207 40.0108 4.63844 38.9403 3.56804C37.8697 2.49764 36.5874 1.6627 35.1753 1.11672C33.5238 0.498131 31.7793 0.164078 30.0161 0.128764C27.7501 0.0244421 27.0262 0 21.254 0Z" fill="#FFE4E5"/>
</svg>
