<svg width="39" height="39" viewBox="0 0 39 39" fill="none" xmlns="http://www.w3.org/2000/svg">
<path fill-rule="evenodd" clip-rule="evenodd" d="M0 3.25812C0 2.39402 0.343269 1.5653 0.954285 0.954285C1.5653 0.343269 2.39402 0 3.25812 0H35.7418C36.1697 0 36.5934 0.0842792 36.9886 0.248016C37.3839 0.411752 37.7431 0.651737 38.0457 0.954285C38.3481 1.25683 38.5882 1.616 38.752 2.01129C38.9156 2.40659 39 2.83025 39 3.25812V35.7418C39 36.1697 38.9156 36.5934 38.752 36.9886C38.5882 37.3839 38.3481 37.7431 38.0457 38.0457C37.7431 38.3481 37.3839 38.5882 36.9886 38.752C36.5934 38.9156 36.1697 39 35.7418 39H3.25812C2.39402 39 1.5653 38.6566 0.954285 38.0457C0.343269 37.4346 0 36.606 0 35.7418V3.25812ZM15.4375 14.8687H20.7188V17.5224C21.48 15.9964 23.4308 14.625 26.3615 14.625C31.9791 14.625 33.3125 17.6621 33.3125 23.235V33.5562H27.625V24.5041C27.625 21.3306 26.8637 19.5406 24.9275 19.5406C22.2422 19.5406 21.125 21.4703 21.125 24.5041V33.5562H15.4375V14.8687ZM5.68749 33.3125H11.375V14.625H5.68749V33.3125ZM12.1875 8.53123C12.1875 9.01138 12.0929 9.48683 11.9092 9.93042C11.7254 10.374 11.4561 10.7771 11.1166 11.1166C10.7771 11.4561 10.374 11.7254 9.93042 11.9092C9.48683 12.0929 9.01138 12.1875 8.53123 12.1875C8.0511 12.1875 7.57565 12.0929 7.13206 11.9092C6.68845 11.7254 6.2854 11.4561 5.94587 11.1166C5.60636 10.7771 5.33706 10.374 5.1533 9.93042C4.96957 9.48683 4.87499 9.01138 4.87499 8.53123C4.87499 7.56154 5.2602 6.63156 5.94587 5.94587C6.63156 5.2602 7.56154 4.87499 8.53123 4.87499C9.50094 4.87499 10.4309 5.2602 11.1166 5.94587C11.8023 6.63156 12.1875 7.56154 12.1875 8.53123Z" fill="#FFE4E5"/>
</svg>
