<svg width="183" height="27" viewBox="0 0 183 27" fill="none" xmlns="http://www.w3.org/2000/svg">
<mask id="path-1-outside-1_823_610" maskUnits="userSpaceOnUse" x="0" y="4" width="183" height="18" fill="black">
<rect fill="white" y="4" width="183" height="18"/>
<path d="M8.932 21.22C7.216 21.22 5.742 20.8827 4.51 20.208C3.278 19.5333 2.32467 18.5873 1.65 17.37C0.99 16.1527 0.66 14.73 0.66 13.102C0.66 11.4887 0.997333 10.0733 1.672 8.856C2.34667 7.624 3.278 6.66333 4.466 5.974C5.66867 5.28467 7.062 4.94 8.646 4.94C9.95133 4.94 11.1173 5.17467 12.144 5.644C13.1853 6.11333 14.0213 6.75867 14.652 7.58C15.2973 8.38667 15.6787 9.32533 15.796 10.396H12.408C12.2613 9.53067 11.8507 8.856 11.176 8.372C10.516 7.87333 9.68733 7.624 8.69 7.624C7.766 7.624 6.95933 7.844 6.27 8.284C5.58067 8.70933 5.04533 9.32533 4.664 10.132C4.28267 10.9387 4.092 11.9067 4.092 13.036C4.092 14.2093 4.28267 15.214 4.664 16.05C5.04533 16.8713 5.60267 17.502 6.336 17.942C7.084 18.3673 8.00067 18.58 9.086 18.58C9.966 18.58 10.714 18.47 11.33 18.25C11.946 18.03 12.4153 17.722 12.738 17.326L15.95 18.602C15.0993 19.4527 14.1093 20.1053 12.98 20.56C11.8653 21 10.516 21.22 8.932 21.22ZM12.562 18.602V14.246L13.244 14.928H9.064V12.332H15.95V18.602H12.562ZM17.8793 21V5.16H21.2673V21H17.8793ZM23.3772 21V5.16H30.4612C31.6052 5.16 32.6026 5.358 33.4532 5.754C34.3039 6.13533 34.9639 6.678 35.4332 7.382C35.9026 8.086 36.1372 8.90733 36.1372 9.846C36.1372 10.77 35.9026 11.584 35.4332 12.288C34.9639 12.9773 34.3039 13.52 33.4532 13.916C32.6026 14.2973 31.6052 14.488 30.4612 14.488H26.0612V12.002H30.3732C31.1799 12.002 31.7959 11.8187 32.2212 11.452C32.6612 11.0707 32.8812 10.5427 32.8812 9.868C32.8812 9.17867 32.6686 8.658 32.2432 8.306C31.8179 7.93933 31.1946 7.756 30.3732 7.756H26.7652V21H23.3772ZM32.3092 21L25.9512 12.772H29.5372L36.8852 21H32.3092ZM38.1605 21V5.16H41.5485V21H38.1605ZM39.7445 21V18.404H49.1605V21H39.7445ZM52.8347 21V7.756H47.6647V5.16H61.3927V7.756H56.2227V21H52.8347ZM59.9108 21L65.5868 5.16H68.4908L63.2768 21H59.9108ZM71.5268 21L66.3348 5.16H69.3708L75.0468 21H71.5268ZM62.9028 14.862H71.7908V17.502H62.9028V14.862ZM76.682 21V5.16H80.07V21H76.682ZM78.266 21V18.404H87.682V21H78.266ZM89.6586 21V5.16H93.0466V21H89.6586ZM91.9686 12.772L99.0966 5.16H103.607L96.0826 12.772H91.9686ZM99.4486 21L91.9246 12.772H96.0826L104.047 21H99.4486ZM153.49 21V19.416H157.736C159.056 19.416 160.192 19.152 161.146 18.624C162.099 18.0813 162.832 17.326 163.346 16.358C163.859 15.39 164.116 14.268 164.116 12.992C164.116 11.7307 163.859 10.6307 163.346 9.692C162.832 8.75333 162.099 8.02733 161.146 7.514C160.207 7.00067 159.07 6.744 157.736 6.744H153.49V5.16H157.736C159.393 5.16 160.838 5.49 162.07 6.15C163.302 6.79533 164.255 7.712 164.93 8.9C165.619 10.0733 165.964 11.452 165.964 13.036C165.964 14.62 165.619 16.0133 164.93 17.216C164.24 18.404 163.28 19.3353 162.048 20.01C160.83 20.67 159.4 21 157.758 21H153.49ZM152.412 21V5.16H154.216V21H152.412ZM168.955 21V5.16H170.759V21H168.955ZM170.561 12.772L178.789 5.16H181.319L172.915 12.772H170.561ZM179.141 21L170.517 12.772H172.915L181.759 21H179.141Z"/>
</mask>
<path d="M8.932 21.22C7.216 21.22 5.742 20.8827 4.51 20.208C3.278 19.5333 2.32467 18.5873 1.65 17.37C0.99 16.1527 0.66 14.73 0.66 13.102C0.66 11.4887 0.997333 10.0733 1.672 8.856C2.34667 7.624 3.278 6.66333 4.466 5.974C5.66867 5.28467 7.062 4.94 8.646 4.94C9.95133 4.94 11.1173 5.17467 12.144 5.644C13.1853 6.11333 14.0213 6.75867 14.652 7.58C15.2973 8.38667 15.6787 9.32533 15.796 10.396H12.408C12.2613 9.53067 11.8507 8.856 11.176 8.372C10.516 7.87333 9.68733 7.624 8.69 7.624C7.766 7.624 6.95933 7.844 6.27 8.284C5.58067 8.70933 5.04533 9.32533 4.664 10.132C4.28267 10.9387 4.092 11.9067 4.092 13.036C4.092 14.2093 4.28267 15.214 4.664 16.05C5.04533 16.8713 5.60267 17.502 6.336 17.942C7.084 18.3673 8.00067 18.58 9.086 18.58C9.966 18.58 10.714 18.47 11.33 18.25C11.946 18.03 12.4153 17.722 12.738 17.326L15.95 18.602C15.0993 19.4527 14.1093 20.1053 12.98 20.56C11.8653 21 10.516 21.22 8.932 21.22ZM12.562 18.602V14.246L13.244 14.928H9.064V12.332H15.95V18.602H12.562ZM17.8793 21V5.16H21.2673V21H17.8793ZM23.3772 21V5.16H30.4612C31.6052 5.16 32.6026 5.358 33.4532 5.754C34.3039 6.13533 34.9639 6.678 35.4332 7.382C35.9026 8.086 36.1372 8.90733 36.1372 9.846C36.1372 10.77 35.9026 11.584 35.4332 12.288C34.9639 12.9773 34.3039 13.52 33.4532 13.916C32.6026 14.2973 31.6052 14.488 30.4612 14.488H26.0612V12.002H30.3732C31.1799 12.002 31.7959 11.8187 32.2212 11.452C32.6612 11.0707 32.8812 10.5427 32.8812 9.868C32.8812 9.17867 32.6686 8.658 32.2432 8.306C31.8179 7.93933 31.1946 7.756 30.3732 7.756H26.7652V21H23.3772ZM32.3092 21L25.9512 12.772H29.5372L36.8852 21H32.3092ZM38.1605 21V5.16H41.5485V21H38.1605ZM39.7445 21V18.404H49.1605V21H39.7445ZM52.8347 21V7.756H47.6647V5.16H61.3927V7.756H56.2227V21H52.8347ZM59.9108 21L65.5868 5.16H68.4908L63.2768 21H59.9108ZM71.5268 21L66.3348 5.16H69.3708L75.0468 21H71.5268ZM62.9028 14.862H71.7908V17.502H62.9028V14.862ZM76.682 21V5.16H80.07V21H76.682ZM78.266 21V18.404H87.682V21H78.266ZM89.6586 21V5.16H93.0466V21H89.6586ZM91.9686 12.772L99.0966 5.16H103.607L96.0826 12.772H91.9686ZM99.4486 21L91.9246 12.772H96.0826L104.047 21H99.4486ZM153.49 21V19.416H157.736C159.056 19.416 160.192 19.152 161.146 18.624C162.099 18.0813 162.832 17.326 163.346 16.358C163.859 15.39 164.116 14.268 164.116 12.992C164.116 11.7307 163.859 10.6307 163.346 9.692C162.832 8.75333 162.099 8.02733 161.146 7.514C160.207 7.00067 159.07 6.744 157.736 6.744H153.49V5.16H157.736C159.393 5.16 160.838 5.49 162.07 6.15C163.302 6.79533 164.255 7.712 164.93 8.9C165.619 10.0733 165.964 11.452 165.964 13.036C165.964 14.62 165.619 16.0133 164.93 17.216C164.24 18.404 163.28 19.3353 162.048 20.01C160.83 20.67 159.4 21 157.758 21H153.49ZM152.412 21V5.16H154.216V21H152.412ZM168.955 21V5.16H170.759V21H168.955ZM170.561 12.772L178.789 5.16H181.319L172.915 12.772H170.561ZM179.141 21L170.517 12.772H172.915L181.759 21H179.141Z" fill="#401609"/>
<path d="M4.51 20.208L4.63218 19.9849L4.63218 19.9849L4.51 20.208ZM1.65 17.37L1.42637 17.4912L1.42751 17.4933L1.65 17.37ZM1.672 8.856L1.89449 8.97931L1.89511 8.97818L1.672 8.856ZM4.466 5.974L4.3395 5.7533L4.33834 5.75398L4.466 5.974ZM12.144 5.644L12.0382 5.87535L12.0395 5.87591L12.144 5.644ZM14.652 7.58L14.4502 7.73495L14.4534 7.73891L14.652 7.58ZM15.796 10.396V10.6504H16.0798L16.0489 10.3683L15.796 10.396ZM12.408 10.396L12.1572 10.4385L12.1931 10.6504H12.408V10.396ZM11.176 8.372L11.0226 8.57502L11.0277 8.57869L11.176 8.372ZM6.27 8.284L6.40359 8.50051L6.40686 8.49842L6.27 8.284ZM4.664 10.132L4.89397 10.2407L4.89397 10.2407L4.664 10.132ZM4.664 16.05L4.43256 16.1556L4.43328 16.1571L4.664 16.05ZM6.336 17.942L6.20509 18.1602L6.21026 18.1631L6.336 17.942ZM11.33 18.25L11.4156 18.4896L11.4156 18.4896L11.33 18.25ZM12.738 17.326L12.8319 17.0896L12.6586 17.0207L12.5408 17.1653L12.738 17.326ZM15.95 18.602L16.1299 18.7819L16.4034 18.5084L16.0439 18.3656L15.95 18.602ZM12.98 20.56L13.0734 20.7966L13.075 20.796L12.98 20.56ZM12.562 18.602H12.3076V18.8564H12.562V18.602ZM12.562 14.246L12.7419 14.0661L12.3076 13.6319V14.246H12.562ZM13.244 14.928V15.1824H13.8581L13.4239 14.7481L13.244 14.928ZM9.064 14.928H8.80963V15.1824H9.064V14.928ZM9.064 12.332V12.0776H8.80963V12.332H9.064ZM15.95 12.332H16.2044V12.0776H15.95V12.332ZM15.95 18.602V18.8564H16.2044V18.602H15.95ZM8.932 21.22V20.9656C7.24932 20.9656 5.81928 20.635 4.63218 19.9849L4.51 20.208L4.38782 20.4311C5.66472 21.1304 7.18268 21.4744 8.932 21.4744V21.22ZM4.51 20.208L4.63218 19.9849C3.44197 19.3331 2.5236 18.4215 1.87249 17.2467L1.65 17.37L1.42751 17.4933C2.12573 18.7531 3.11403 19.7336 4.38782 20.4311L4.51 20.208ZM1.65 17.37L1.87362 17.2488C1.23708 16.0747 0.914374 14.6951 0.914374 13.102H0.66H0.405626C0.405626 14.7649 0.742919 16.2306 1.42638 17.4912L1.65 17.37ZM0.66 13.102H0.914374C0.914374 11.5249 1.24385 10.1533 1.89449 8.97931L1.672 8.856L1.44951 8.73269C0.750814 9.99338 0.405626 11.4524 0.405626 13.102H0.66ZM1.672 8.856L1.89511 8.97818C2.54802 7.78592 3.44676 6.85951 4.59366 6.19402L4.466 5.974L4.33834 5.75398C3.10924 6.46716 2.14532 7.46208 1.44889 8.73382L1.672 8.856ZM4.466 5.974L4.59249 6.19469C5.75144 5.53042 7.09995 5.19437 8.646 5.19437V4.94V4.68563C7.02405 4.68563 5.5859 5.03891 4.33951 5.75331L4.466 5.974ZM8.646 4.94V5.19437C9.92051 5.19437 11.0496 5.42338 12.0382 5.87535L12.144 5.644L12.2498 5.41265C11.1851 4.92595 9.98215 4.68563 8.646 4.68563V4.94ZM12.144 5.644L12.0395 5.87591C13.0466 6.32981 13.8477 6.95021 14.4502 7.73492L14.652 7.58L14.8538 7.42508C14.195 6.56712 13.3241 5.89686 12.2485 5.41209L12.144 5.644ZM14.652 7.58L14.4534 7.73891C15.0672 8.50622 15.4308 9.39888 15.5431 10.4237L15.796 10.396L16.0489 10.3683C15.9265 9.25178 15.5275 8.26711 14.8506 7.42109L14.652 7.58ZM15.796 10.396V10.1416H12.408V10.396V10.6504H15.796V10.396ZM12.408 10.396L12.6588 10.3535C12.5016 9.42624 12.0568 8.69079 11.3243 8.16531L11.176 8.372L11.0277 8.57869C11.6446 9.02121 12.021 9.63509 12.1572 10.4385L12.408 10.396ZM11.176 8.372L11.3293 8.16904C10.6167 7.63059 9.73098 7.36962 8.69 7.36962V7.624V7.87837C9.64369 7.87837 10.4153 8.11608 11.0227 8.57496L11.176 8.372ZM8.69 7.624V7.36962C7.72398 7.36962 6.86849 7.60021 6.13314 8.06958L6.27 8.284L6.40686 8.49842C7.05018 8.08779 7.80802 7.87837 8.69 7.87837V7.624ZM6.27 8.284L6.13643 8.06752C5.401 8.52129 4.83417 9.17682 4.43403 10.0233L4.664 10.132L4.89397 10.2407C5.25649 9.47385 5.76033 8.89738 6.40357 8.50048L6.27 8.284ZM4.664 10.132L4.43403 10.0233C4.03295 10.8717 3.83763 11.8788 3.83763 13.036H4.092H4.34637C4.34637 11.9346 4.53239 11.0056 4.89397 10.2407L4.664 10.132ZM4.092 13.036H3.83763C3.83763 14.236 4.03254 15.2786 4.43257 16.1556L4.664 16.05L4.89543 15.9444C4.53279 15.1494 4.34637 14.1826 4.34637 13.036H4.092ZM4.664 16.05L4.43328 16.1571C4.83471 17.0217 5.42553 17.6924 6.20513 18.1601L6.336 17.942L6.46687 17.7239C5.77981 17.3116 5.25595 16.7209 4.89472 15.9429L4.664 16.05ZM6.336 17.942L6.21026 18.1631C7.00536 18.6152 7.96792 18.8344 9.086 18.8344V18.58V18.3256C8.03342 18.3256 7.16264 18.1194 6.46174 17.7209L6.336 17.942ZM9.086 18.58V18.8344C9.98573 18.8344 10.7644 18.7221 11.4156 18.4896L11.33 18.25L11.2444 18.0104C10.6636 18.2179 9.94627 18.3256 9.086 18.3256V18.58ZM11.33 18.25L11.4156 18.4896C12.0632 18.2583 12.5761 17.9275 12.9352 17.4867L12.738 17.326L12.5408 17.1653C12.2546 17.5165 11.8288 17.8017 11.2444 18.0104L11.33 18.25ZM12.738 17.326L12.6441 17.5624L15.8561 18.8384L15.95 18.602L16.0439 18.3656L12.8319 17.0896L12.738 17.326ZM15.95 18.602L15.7701 18.4221C14.944 19.2483 13.9829 19.882 12.885 20.324L12.98 20.56L13.075 20.796C14.2357 20.3287 15.2547 19.6571 16.1299 18.7819L15.95 18.602ZM12.98 20.56L12.8866 20.3234C11.8096 20.7485 10.4938 20.9656 8.932 20.9656V21.22V21.4744C10.5382 21.4744 11.9211 21.2515 13.0734 20.7966L12.98 20.56ZM12.562 18.602H12.8164V14.246H12.562H12.3076V18.602H12.562ZM12.562 14.246L12.3821 14.4259L13.0641 15.1079L13.244 14.928L13.4239 14.7481L12.7419 14.0661L12.562 14.246ZM13.244 14.928V14.6736H9.064V14.928V15.1824H13.244V14.928ZM9.064 14.928H9.31837V12.332H9.064H8.80963V14.928H9.064ZM9.064 12.332V12.5864H15.95V12.332V12.0776H9.064V12.332ZM15.95 12.332H15.6956V18.602H15.95H16.2044V12.332H15.95ZM15.95 18.602V18.3476H12.562V18.602V18.8564H15.95V18.602ZM17.8793 21H17.6249V21.2544H17.8793V21ZM17.8793 5.16V4.90563H17.6249V5.16H17.8793ZM21.2673 5.16H21.5217V4.90563H21.2673V5.16ZM21.2673 21V21.2544H21.5217V21H21.2673ZM17.8793 21H18.1337V5.16H17.8793H17.6249V21H17.8793ZM17.8793 5.16V5.41437H21.2673V5.16V4.90563H17.8793V5.16ZM21.2673 5.16H21.0129V21H21.2673H21.5217V5.16H21.2673ZM21.2673 21V20.7456H17.8793V21V21.2544H21.2673V21ZM23.3772 21H23.1229V21.2544H23.3772V21ZM23.3772 5.16V4.90563H23.1229V5.16H23.3772ZM33.4532 5.754L33.3459 5.98463L33.3492 5.98612L33.4532 5.754ZM35.4332 7.382L35.2216 7.5231L35.2216 7.5231L35.4332 7.382ZM35.4332 12.288L35.6435 12.4312L35.6449 12.4291L35.4332 12.288ZM33.4532 13.916L33.5573 14.1481L33.5606 14.1466L33.4532 13.916ZM26.0612 14.488H25.8069V14.7424H26.0612V14.488ZM26.0612 12.002V11.7476H25.8069V12.002H26.0612ZM32.2212 11.452L32.3873 11.6447L32.3878 11.6442L32.2212 11.452ZM32.2432 8.306L32.0771 8.4987L32.0811 8.50197L32.2432 8.306ZM26.7652 7.756V7.50162H26.5109V7.756H26.7652ZM26.7652 21V21.2544H27.0196V21H26.7652ZM32.3092 21L32.108 21.1555L32.1843 21.2544H32.3092V21ZM25.9512 12.772V12.5176H25.4332L25.75 12.9275L25.9512 12.772ZM29.5372 12.772L29.727 12.6026L29.6511 12.5176H29.5372V12.772ZM36.8852 21V21.2544H37.4534L37.075 20.8306L36.8852 21ZM23.3772 21H23.6316V5.16H23.3772H23.1229V21H23.3772ZM23.3772 5.16V5.41437H30.4612V5.16V4.90563H23.3772V5.16ZM30.4612 5.16V5.41437C31.5761 5.41437 32.5354 5.60731 33.3459 5.98461L33.4532 5.754L33.5606 5.52339C32.6698 5.10869 31.6344 4.90563 30.4612 4.90563V5.16ZM33.4532 5.754L33.3492 5.98612C34.1607 6.34992 34.7815 6.86297 35.2216 7.5231L35.4332 7.382L35.6449 7.2409C35.1463 6.49303 34.4471 5.92075 33.5573 5.52188L33.4532 5.754ZM35.4332 7.382L35.2216 7.5231C35.6601 8.18081 35.8829 8.95184 35.8829 9.846H36.1372H36.3916C36.3916 8.86282 36.1451 7.99119 35.6449 7.2409L35.4332 7.382ZM36.1372 9.846H35.8829C35.8829 10.7246 35.6605 11.4885 35.2216 12.1469L35.4332 12.288L35.6449 12.4291C36.1446 11.6795 36.3916 10.8154 36.3916 9.846H36.1372ZM35.4332 12.288L35.223 12.1448C34.7825 12.7917 34.1603 13.3063 33.3459 13.6854L33.4532 13.916L33.5606 14.1466C34.4475 13.7337 35.1453 13.163 35.6435 12.4312L35.4332 12.288ZM33.4532 13.916L33.3492 13.6839C32.5378 14.0476 31.5773 14.2336 30.4612 14.2336V14.488V14.7424C31.6331 14.7424 32.6673 14.5471 33.5573 14.1481L33.4532 13.916ZM30.4612 14.488V14.2336H26.0612V14.488V14.7424H30.4612V14.488ZM26.0612 14.488H26.3156V12.002H26.0612H25.8069V14.488H26.0612ZM26.0612 12.002V12.2564H30.3732V12.002V11.7476H26.0612V12.002ZM30.3732 12.002V12.2564C31.2147 12.2564 31.8992 12.0654 32.3873 11.6447L32.2212 11.452L32.0551 11.2593C31.6926 11.5719 31.1451 11.7476 30.3732 11.7476V12.002ZM32.2212 11.452L32.3878 11.6442C32.8927 11.2067 33.1356 10.6035 33.1356 9.868H32.8812H32.6269C32.6269 10.4819 32.4298 10.9346 32.0546 11.2598L32.2212 11.452ZM32.8812 9.868H33.1356C33.1356 9.12341 32.9033 8.52208 32.4054 8.11003L32.2432 8.306L32.0811 8.50197C32.4338 8.79392 32.6269 9.23392 32.6269 9.868H32.8812ZM32.2432 8.306L32.4093 8.11333C31.9205 7.69195 31.228 7.50162 30.3732 7.50162V7.756V8.01037C31.1612 8.01037 31.7153 8.18671 32.0771 8.49866L32.2432 8.306ZM30.3732 7.756V7.50162H26.7652V7.756V8.01037H30.3732V7.756ZM26.7652 7.756H26.5109V21H26.7652H27.0196V7.756H26.7652ZM26.7652 21V20.7456H23.3772V21V21.2544H26.7652V21ZM32.3092 21L32.5105 20.8445L26.1525 12.6165L25.9512 12.772L25.75 12.9275L32.108 21.1555L32.3092 21ZM25.9512 12.772V13.0264H29.5372V12.772V12.5176H25.9512V12.772ZM29.5372 12.772L29.3475 12.9414L36.6955 21.1694L36.8852 21L37.075 20.8306L29.727 12.6026L29.5372 12.772ZM36.8852 21V20.7456H32.3092V21V21.2544H36.8852V21ZM38.1605 21H37.9062V21.2544H38.1605V21ZM38.1605 5.16V4.90563H37.9062V5.16H38.1605ZM41.5485 5.16H41.8029V4.90563H41.5485V5.16ZM41.5485 21V21.2544H41.8029V21H41.5485ZM39.7445 21H39.4902V21.2544H39.7445V21ZM39.7445 18.404V18.1496H39.4902V18.404H39.7445ZM49.1605 18.404H49.4149V18.1496H49.1605V18.404ZM49.1605 21V21.2544H49.4149V21H49.1605ZM38.1605 21H38.4149V5.16H38.1605H37.9062V21H38.1605ZM38.1605 5.16V5.41437H41.5485V5.16V4.90563H38.1605V5.16ZM41.5485 5.16H41.2942V21H41.5485H41.8029V5.16H41.5485ZM41.5485 21V20.7456H38.1605V21V21.2544H41.5485V21ZM39.7445 21H39.9989V18.404H39.7445H39.4902V21H39.7445ZM39.7445 18.404V18.6584H49.1605V18.404V18.1496H39.7445V18.404ZM49.1605 18.404H48.9062V21H49.1605H49.4149V18.404H49.1605ZM49.1605 21V20.7456H39.7445V21V21.2544H49.1605V21ZM52.8347 21H52.5803V21.2544H52.8347V21ZM52.8347 7.756H53.0891V7.50162H52.8347V7.756ZM47.6647 7.756H47.4103V8.01037H47.6647V7.756ZM47.6647 5.16V4.90563H47.4103V5.16H47.6647ZM61.3927 5.16H61.6471V4.90563H61.3927V5.16ZM61.3927 7.756V8.01037H61.6471V7.756H61.3927ZM56.2227 7.756V7.50162H55.9683V7.756H56.2227ZM56.2227 21V21.2544H56.4771V21H56.2227ZM52.8347 21H53.0891V7.756H52.8347H52.5803V21H52.8347ZM52.8347 7.756V7.50162H47.6647V7.756V8.01037H52.8347V7.756ZM47.6647 7.756H47.9191V5.16H47.6647H47.4103V7.756H47.6647ZM47.6647 5.16V5.41437H61.3927V5.16V4.90563H47.6647V5.16ZM61.3927 5.16H61.1383V7.756H61.3927H61.6471V5.16H61.3927ZM61.3927 7.756V7.50162H56.2227V7.756V8.01037H61.3927V7.756ZM56.2227 7.756H55.9683V21H56.2227H56.4771V7.756H56.2227ZM56.2227 21V20.7456H52.8347V21V21.2544H56.2227V21ZM59.9108 21L59.6713 20.9142L59.5494 21.2544H59.9108V21ZM65.5868 5.16V4.90563H65.4078L65.3473 5.07419L65.5868 5.16ZM68.4908 5.16L68.7324 5.23953L68.8423 4.90563H68.4908V5.16ZM63.2768 21V21.2544H63.4609L63.5184 21.0795L63.2768 21ZM71.5268 21L71.2851 21.0792L71.3425 21.2544H71.5268V21ZM66.3348 5.16V4.90563H65.9837L66.0931 5.23923L66.3348 5.16ZM69.3708 5.16L69.6103 5.07419L69.5499 4.90563H69.3708V5.16ZM75.0468 21V21.2544H75.4082L75.2863 20.9142L75.0468 21ZM62.9028 14.862V14.6076H62.6484V14.862H62.9028ZM71.7908 14.862H72.0452V14.6076H71.7908V14.862ZM71.7908 17.502V17.7564H72.0452V17.502H71.7908ZM62.9028 17.502H62.6484V17.7564H62.9028V17.502ZM59.9108 21L60.1503 21.0858L65.8263 5.24581L65.5868 5.16L65.3473 5.07419L59.6713 20.9142L59.9108 21ZM65.5868 5.16V5.41437H68.4908V5.16V4.90563H65.5868V5.16ZM68.4908 5.16L68.2492 5.08047L63.0352 20.9205L63.2768 21L63.5184 21.0795L68.7324 5.23953L68.4908 5.16ZM63.2768 21V20.7456H59.9108V21V21.2544H63.2768V21ZM71.5268 21L71.7685 20.9208L66.5765 5.08077L66.3348 5.16L66.0931 5.23923L71.2851 21.0792L71.5268 21ZM66.3348 5.16V5.41437H69.3708V5.16V4.90563H66.3348V5.16ZM69.3708 5.16L69.1313 5.24581L74.8073 21.0858L75.0468 21L75.2863 20.9142L69.6103 5.07419L69.3708 5.16ZM75.0468 21V20.7456H71.5268V21V21.2544H75.0468V21ZM62.9028 14.862V15.1164H71.7908V14.862V14.6076H62.9028V14.862ZM71.7908 14.862H71.5364V17.502H71.7908H72.0452V14.862H71.7908ZM71.7908 17.502V17.2476H62.9028V17.502V17.7564H71.7908V17.502ZM62.9028 17.502H63.1572V14.862H62.9028H62.6484V17.502H62.9028ZM76.682 21H76.4277V21.2544H76.682V21ZM76.682 5.16V4.90563H76.4277V5.16H76.682ZM80.07 5.16H80.3244V4.90563H80.07V5.16ZM80.07 21V21.2544H80.3244V21H80.07ZM78.266 21H78.0117V21.2544H78.266V21ZM78.266 18.404V18.1496H78.0117V18.404H78.266ZM87.682 18.404H87.9364V18.1496H87.682V18.404ZM87.682 21V21.2544H87.9364V21H87.682ZM76.682 21H76.9364V5.16H76.682H76.4277V21H76.682ZM76.682 5.16V5.41437H80.07V5.16V4.90563H76.682V5.16ZM80.07 5.16H79.8157V21H80.07H80.3244V5.16H80.07ZM80.07 21V20.7456H76.682V21V21.2544H80.07V21ZM78.266 21H78.5204V18.404H78.266H78.0117V21H78.266ZM78.266 18.404V18.6584H87.682V18.404V18.1496H78.266V18.404ZM87.682 18.404H87.4277V21H87.682H87.9364V18.404H87.682ZM87.682 21V20.7456H78.266V21V21.2544H87.682V21ZM89.6586 21H89.4042V21.2544H89.6586V21ZM89.6586 5.16V4.90563H89.4042V5.16H89.6586ZM93.0466 5.16H93.301V4.90563H93.0466V5.16ZM93.0466 21V21.2544H93.301V21H93.0466ZM91.9686 12.772L91.7829 12.5981L91.3819 13.0264H91.9686V12.772ZM99.0966 5.16V4.90563H98.9863L98.9109 4.98613L99.0966 5.16ZM103.607 5.16L103.788 5.33882L104.216 4.90563H103.607V5.16ZM96.0826 12.772V13.0264H96.1888L96.2635 12.9508L96.0826 12.772ZM99.4486 21L99.2609 21.1717L99.3365 21.2544H99.4486V21ZM91.9246 12.772V12.5176H91.3473L91.7369 12.9437L91.9246 12.772ZM96.0826 12.772L96.2654 12.5951L96.1904 12.5176H96.0826V12.772ZM104.047 21V21.2544H104.647L104.229 20.8231L104.047 21ZM89.6586 21H89.913V5.16H89.6586H89.4042V21H89.6586ZM89.6586 5.16V5.41437H93.0466V5.16V4.90563H89.6586V5.16ZM93.0466 5.16H92.7922V21H93.0466H93.301V5.16H93.0466ZM93.0466 21V20.7456H89.6586V21V21.2544H93.0466V21ZM91.9686 12.772L92.1543 12.9459L99.2823 5.33387L99.0966 5.16L98.9109 4.98613L91.7829 12.5981L91.9686 12.772ZM99.0966 5.16V5.41437H103.607V5.16V4.90563H99.0966V5.16ZM103.607 5.16L103.426 4.98118L95.9017 12.5932L96.0826 12.772L96.2635 12.9508L103.788 5.33882L103.607 5.16ZM96.0826 12.772V12.5176H91.9686V12.772V13.0264H96.0826V12.772ZM99.4486 21L99.6363 20.8283L92.1123 12.6003L91.9246 12.772L91.7369 12.9437L99.2609 21.1717L99.4486 21ZM91.9246 12.772V13.0264H96.0826V12.772V12.5176H91.9246V12.772ZM96.0826 12.772L95.8998 12.9489L103.864 21.1769L104.047 21L104.229 20.8231L96.2654 12.5951L96.0826 12.772ZM104.047 21V20.7456H99.4486V21V21.2544H104.047V21ZM153.49 21H153.235V21.2544H153.49V21ZM153.49 19.416V19.1616H153.235V19.416H153.49ZM161.146 18.624L161.269 18.8465L161.271 18.8451L161.146 18.624ZM163.346 16.358L163.121 16.2388L163.121 16.2388L163.346 16.358ZM163.346 9.692L163.122 9.81405L163.122 9.81405L163.346 9.692ZM161.146 7.514L161.023 7.73718L161.025 7.73797L161.146 7.514ZM153.49 6.744H153.235V6.99837H153.49V6.744ZM153.49 5.16V4.90563H153.235V5.16H153.49ZM162.07 6.15L161.949 6.37424L161.952 6.37533L162.07 6.15ZM164.93 8.9L164.708 9.02563L164.71 9.02885L164.93 8.9ZM164.93 17.216L165.15 17.3437L165.15 17.3425L164.93 17.216ZM162.048 20.01L162.169 20.2336L162.17 20.2331L162.048 20.01ZM152.412 21H152.157V21.2544H152.412V21ZM152.412 5.16V4.90563H152.157V5.16H152.412ZM154.216 5.16H154.47V4.90563H154.216V5.16ZM154.216 21V21.2544H154.47V21H154.216ZM153.49 21H153.744V19.416H153.49H153.235V21H153.49ZM153.49 19.416V19.6704H157.736V19.416V19.1616H153.49V19.416ZM157.736 19.416V19.6704C159.09 19.6704 160.271 19.3994 161.269 18.8465L161.146 18.624L161.022 18.4015C160.114 18.9046 159.021 19.1616 157.736 19.1616V19.416ZM161.146 18.624L161.271 18.8451C162.267 18.2785 163.034 17.4879 163.57 16.4772L163.346 16.358L163.121 16.2388C162.63 17.1641 161.931 17.8841 161.02 18.4029L161.146 18.624ZM163.346 16.358L163.57 16.4772C164.106 15.4669 164.37 14.3027 164.37 12.992H164.116H163.861C163.861 14.2333 163.612 15.3131 163.121 16.2388L163.346 16.358ZM164.116 12.992H164.37C164.37 11.6957 164.106 10.5522 163.569 9.56995L163.346 9.692L163.122 9.81405C163.612 10.7091 163.861 11.7657 163.861 12.992H164.116ZM163.346 9.692L163.569 9.56995C163.031 8.58755 162.262 7.8264 161.266 7.29003L161.146 7.514L161.025 7.73797C161.935 8.22827 162.633 8.91912 163.122 9.81405L163.346 9.692ZM161.146 7.514L161.268 7.29082C160.283 6.75255 159.102 6.48963 157.736 6.48963V6.744V6.99837C159.038 6.99837 160.13 7.24878 161.023 7.73718L161.146 7.514ZM157.736 6.744V6.48963H153.49V6.744V6.99837H157.736V6.744ZM153.49 6.744H153.744V5.16H153.49H153.235V6.744H153.49ZM153.49 5.16V5.41437H157.736V5.16V4.90563H153.49V5.16ZM157.736 5.16V5.41437C159.359 5.41437 160.761 5.73739 161.949 6.37423L162.07 6.15L162.19 5.92577C160.914 5.24261 159.427 4.90563 157.736 4.90563V5.16ZM162.07 6.15L161.952 6.37533C163.141 6.99845 164.058 7.88087 164.708 9.02562L164.93 8.9L165.151 8.77438C164.451 7.54313 163.462 6.59222 162.188 5.92467L162.07 6.15ZM164.93 8.9L164.71 9.02885C165.373 10.1571 165.709 11.4898 165.709 13.036H165.964H166.218C166.218 11.4142 165.865 9.98955 165.149 8.77115L164.93 8.9ZM165.964 13.036H165.709C165.709 14.582 165.373 15.9306 164.709 17.0895L164.93 17.216L165.15 17.3425C165.865 16.0961 166.218 14.658 166.218 13.036H165.964ZM164.93 17.216L164.71 17.0883C164.044 18.2352 163.118 19.134 161.925 19.7869L162.048 20.01L162.17 20.2331C163.441 19.5367 164.436 18.5728 165.15 17.3437L164.93 17.216ZM162.048 20.01L161.926 19.7864C160.753 20.4227 159.366 20.7456 157.758 20.7456V21V21.2544C159.435 21.2544 160.908 20.9173 162.169 20.2336L162.048 20.01ZM157.758 21V20.7456H153.49V21V21.2544H157.758V21ZM152.412 21H152.666V5.16H152.412H152.157V21H152.412ZM152.412 5.16V5.41437H154.216V5.16V4.90563H152.412V5.16ZM154.216 5.16H153.961V21H154.216H154.47V5.16H154.216ZM154.216 21V20.7456H152.412V21V21.2544H154.216V21ZM168.955 21H168.7V21.2544H168.955V21ZM168.955 5.16V4.90563H168.7V5.16H168.955ZM170.759 5.16H171.013V4.90563H170.759V5.16ZM170.759 21V21.2544H171.013V21H170.759ZM170.561 12.772L170.388 12.5853L169.911 13.0264H170.561V12.772ZM178.789 5.16V4.90563H178.689L178.616 4.97328L178.789 5.16ZM181.319 5.16L181.489 5.34853L181.978 4.90563H181.319V5.16ZM172.915 12.772V13.0264H173.013L173.085 12.9605L172.915 12.772ZM179.141 21L178.965 21.184L179.039 21.2544H179.141V21ZM170.517 12.772V12.5176H169.881L170.341 12.956L170.517 12.772ZM172.915 12.772L173.088 12.5858L173.015 12.5176H172.915V12.772ZM181.759 21V21.2544H182.405L181.932 20.8138L181.759 21ZM168.955 21H169.209V5.16H168.955H168.7V21H168.955ZM168.955 5.16V5.41437H170.759V5.16V4.90563H168.955V5.16ZM170.759 5.16H170.504V21H170.759H171.013V5.16H170.759ZM170.759 21V20.7456H168.955V21V21.2544H170.759V21ZM170.561 12.772L170.733 12.9587L178.961 5.34672L178.789 5.16L178.616 4.97328L170.388 12.5853L170.561 12.772ZM178.789 5.16V5.41437H181.319V5.16V4.90563H178.789V5.16ZM181.319 5.16L181.148 4.97147L172.744 12.5835L172.915 12.772L173.085 12.9605L181.489 5.34853L181.319 5.16ZM172.915 12.772V12.5176H170.561V12.772V13.0264H172.915V12.772ZM179.141 21L179.316 20.816L170.692 12.588L170.517 12.772L170.341 12.956L178.965 21.184L179.141 21ZM170.517 12.772V13.0264H172.915V12.772V12.5176H170.517V12.772ZM172.915 12.772L172.741 12.9582L181.585 21.1862L181.759 21L181.932 20.8138L173.088 12.5858L172.915 12.772ZM181.759 21V20.7456H179.141V21V21.2544H181.759V21Z" fill="#401609" mask="url(#path-1-outside-1_823_610)"/>
<path fill-rule="evenodd" clip-rule="evenodd" d="M127.731 7.2245C126.43 5.19767 124.162 2 120.366 2C116.532 2 114.5 5.44103 114.5 8.57475C114.5 12.6979 116.638 16.2419 119.332 19.1518C122.029 22.0659 125.342 24.3861 127.731 26.0567C130.12 24.3861 133.433 22.0659 136.131 19.1518C138.824 16.2419 140.962 12.6979 140.962 8.57475C140.962 5.44103 138.93 2 135.096 2C131.3 2 129.032 5.19767 127.731 7.2245Z" fill="#1F3DB0"/>
</svg>
