<svg width="43" height="43" viewBox="0 0 43 43" fill="none" xmlns="http://www.w3.org/2000/svg">
<mask id="mask0_874_1103" style="mask-type:luminance" maskUnits="userSpaceOnUse" x="0" y="0" width="43" height="43">
<path d="M42.508 0H0V42.508H42.508V0Z" fill="white"/>
</mask>
<g mask="url(#mask0_874_1103)">
<path d="M21.2458 0C9.53084 0 0 9.53154 0 21.2474C0 32.9706 9.53084 42.508 21.2458 42.508C32.9697 42.508 42.508 32.9706 42.508 21.2474C42.508 9.53154 32.9697 0 21.2458 0ZM10.4639 29.0546C12.9272 28.3048 15.4527 27.9245 17.9701 27.9245C22.2453 27.9245 26.466 29.008 30.1776 31.059C30.3985 31.1792 30.5992 31.577 30.6892 32.0723C30.7793 32.5673 30.7434 33.0763 30.5988 33.3411C30.4164 33.681 30.0462 33.9006 29.6557 33.9006C29.4621 33.9006 29.2919 33.8571 29.1217 33.7651C25.7143 31.8923 21.8583 30.9022 17.9701 30.9022C15.6209 30.9022 13.3148 31.2499 11.1176 31.9348C11.0105 31.9672 10.9004 31.9839 10.7903 31.9839C10.3092 31.9841 9.89168 31.6775 9.75161 31.2228C9.56249 30.601 9.9537 29.2214 10.4639 29.0546ZM9.53712 21.2265C12.2826 20.4802 15.1199 20.1017 17.9701 20.1017C23.094 20.1017 28.1823 21.3415 32.6877 23.689C33.0035 23.8493 33.2363 24.121 33.3429 24.4541C33.4511 24.7915 33.4185 25.1543 33.2497 25.478C32.8477 26.265 32.3776 26.7937 32.0801 26.7937C31.8689 26.7937 31.6654 26.743 31.4626 26.6417C27.2788 24.4632 22.7395 23.3585 17.9701 23.3585C15.3171 23.3585 12.7143 23.7074 10.2365 24.3946C10.1212 24.426 10.0029 24.4417 9.88512 24.4417C9.28904 24.4417 8.76374 24.0391 8.60822 23.4642C8.40905 22.7166 8.8641 21.4095 9.53712 21.2265ZM9.29977 16.1121C9.17391 16.1431 9.04527 16.1587 8.91734 16.1587C8.19694 16.1589 7.57269 15.6721 7.39931 14.9759C7.18204 14.0947 7.73339 13.071 8.53185 12.8699C11.6371 12.1071 14.8126 11.7204 17.9701 11.7204C24.0822 11.7204 29.9359 13.0945 35.3705 15.8056C35.748 15.9918 36.0294 16.3132 36.1631 16.7105C36.2968 17.1083 36.2674 17.5364 36.0806 17.9146C35.8261 18.424 35.2761 18.9725 34.67 18.9725C34.4364 18.9725 34.1964 18.9176 33.9839 18.8179C28.9917 16.3203 23.604 15.0538 17.9701 15.0538C15.0749 15.0539 12.1578 15.4099 9.29977 16.1121Z" fill="#FFE4E5"/>
</g>
</svg>
