<svg width="24" height="24" viewBox="0 0 24 24" fill="none" xmlns="http://www.w3.org/2000/svg">
<path d="M11.9954 0C5.38111 0 0 5.25533 0 11.715C0 18.1787 5.38111 23.4373 11.9954 23.4373C18.6147 23.4373 24 18.1787 24 11.715C24 5.25533 18.6147 0 11.9954 0ZM5.90793 16.0196C7.29868 15.6062 8.72459 15.3965 10.1459 15.3965C12.5597 15.3965 14.9427 15.9939 17.0383 17.1247C17.163 17.191 17.2763 17.4104 17.3271 17.6834C17.378 17.9564 17.3577 18.237 17.2761 18.383C17.1731 18.5704 16.9641 18.6915 16.7436 18.6915C16.6343 18.6915 16.5382 18.6675 16.4421 18.6168C14.5183 17.5842 12.3412 17.0383 10.1459 17.0383C8.81957 17.0383 7.51751 17.23 6.27698 17.6076C6.21655 17.6255 6.15439 17.6347 6.09222 17.6347C5.82059 17.6348 5.58484 17.4657 5.50576 17.2151C5.39898 16.8722 5.61986 16.1116 5.90793 16.0196ZM5.38466 11.7035C6.93474 11.292 8.53668 11.0833 10.1459 11.0833C13.0389 11.0833 15.9117 11.7669 18.4555 13.0612C18.6338 13.1496 18.7652 13.2994 18.8254 13.4831C18.8865 13.6691 18.8681 13.8691 18.7728 14.0476C18.5458 14.4815 18.2804 14.773 18.1124 14.773C17.9932 14.773 17.8783 14.7451 17.7638 14.6892C15.4016 13.488 12.8387 12.879 10.1459 12.879C8.64803 12.879 7.17852 13.0714 5.77951 13.4503C5.71444 13.4675 5.64763 13.4762 5.58114 13.4762C5.24459 13.4762 4.94801 13.2543 4.8602 12.9373C4.74775 12.5251 5.00467 11.8044 5.38466 11.7035ZM5.25065 8.88357C5.17959 8.9007 5.10696 8.90931 5.03473 8.90931C4.62799 8.90939 4.27554 8.64098 4.17765 8.25714C4.05498 7.77126 4.36627 7.20684 4.81708 7.09595C6.57033 6.67539 8.36317 6.46215 10.1459 6.46215C13.5968 6.46215 16.9018 7.21983 19.9702 8.71459C20.1833 8.81725 20.3422 8.99445 20.4177 9.21353C20.4932 9.43284 20.4766 9.66891 20.3711 9.87744C20.2274 10.1583 19.9169 10.4607 19.5747 10.4607C19.4428 10.4607 19.3073 10.4305 19.1873 10.3755C16.3687 8.99838 13.3268 8.30009 10.1459 8.30009C8.51127 8.30017 6.86431 8.49643 5.25065 8.88357Z" fill="#FFF5E9"/>
</svg>
