<svg width="43" height="40" viewBox="0 0 43 40" fill="none" xmlns="http://www.w3.org/2000/svg">
<path d="M37.6452 8.55458C37.3102 8.41505 36.9844 8.26208 36.6684 8.09627C35.7498 7.60666 34.9078 7.02978 34.1601 6.37801C32.2892 4.65227 31.5905 2.90153 31.3332 1.67576H31.3435C31.1286 0.658296 31.2174 0 31.2309 0H22.7102V26.5637C22.7102 26.9203 22.7102 27.2728 22.6917 27.6212C22.6917 27.6644 22.6866 27.7044 22.6835 27.7512C22.6835 27.7703 22.6835 27.7903 22.6782 27.8103C22.6782 27.8153 22.6782 27.8203 22.6782 27.8253C22.5885 28.7783 22.2095 29.6991 21.5747 30.5064C20.9401 31.3136 20.069 31.9829 19.0382 32.4551C17.9637 32.9479 16.7487 33.2063 15.5127 33.2051C11.5428 33.2051 8.32536 30.5951 8.32536 27.372C8.32536 24.1488 11.5428 21.539 15.5127 21.539C16.2642 21.5383 17.011 21.6338 17.7256 21.8215L17.7357 14.8268C15.5668 14.6009 13.3632 14.7399 11.2641 15.2349C9.16503 15.73 7.21598 16.5706 5.53994 17.7033C4.07134 18.732 2.83666 19.9595 1.8915 21.3307C1.53184 21.8306 0.174785 23.8397 0.0104531 27.1003C-0.0929129 28.9511 0.596473 30.8685 0.925137 31.661V31.6775C1.13185 32.1442 1.93285 33.7366 3.23822 35.0791C4.29084 36.1559 5.53445 37.1018 6.92904 37.8865V37.8698L6.94969 37.8865C11.0746 40.1463 15.6481 39.998 15.6481 39.998C16.4398 39.9722 19.0917 39.998 22.1037 38.8473C25.4441 37.5715 27.3458 35.6708 27.3458 35.6708C28.5607 34.535 29.5267 33.2407 30.2025 31.8434C30.9736 30.2093 31.2309 28.2494 31.2309 27.4662V13.3735C31.3343 13.4235 32.711 14.1576 32.711 14.1576C32.711 14.1576 34.6943 15.1826 37.7887 15.85C40.0088 16.325 43 16.425 43 16.425V9.60535C41.952 9.69701 39.8238 9.43036 37.6452 8.55458Z" fill="#FFE4E5"/>
</svg>
