<svg width="45" height="40" viewBox="0 0 45 40" fill="none" xmlns="http://www.w3.org/2000/svg">
<path d="M44.0563 6.2731C43.8084 5.07595 43.3137 3.98142 42.6217 3.09923C41.9295 2.21704 41.0645 1.57821 40.1131 1.24676C36.5925 0.012214 22.4864 0.0122136 22.4864 0.0122136C16.6045 -0.0763074 10.7243 0.316428 4.88322 1.18797C3.9315 1.54363 3.06786 2.19718 2.37383 3.08694C1.67982 3.97667 1.1783 5.07323 0.916626 6.2731C0.285578 10.8055 -0.0207621 15.3995 0.00125906 19.9999C-0.0222722 24.6006 0.28408 29.1948 0.916626 33.7271C1.17291 34.9236 1.67335 36.0162 2.36879 36.8976C3.06423 37.7788 3.93073 38.4182 4.88322 38.7532C8.45081 39.9877 22.4864 39.9877 22.4864 39.9877C28.3761 40.0764 34.2643 39.6837 40.1131 38.812C41.0645 38.4807 41.9295 37.8418 42.6217 36.9596C43.3137 36.0774 43.8084 34.9828 44.0563 33.7858C44.7034 29.2555 45.0176 24.6608 44.9951 20.0589C45.0437 15.4362 44.7291 10.8187 44.0563 6.2731ZM18.0035 28.5537V11.4464L29.739 19.9999L18.0035 28.5537Z" fill="#FFE4E5"/>
</svg>
